<?xml version="1.0" encoding="UTF-8"?>
<svg id="Icons" xmlns="http://www.w3.org/2000/svg" xmlns:svg="http://www.w3.org/2000/svg" xmlns:sodipodi="http://sodipodi.sourceforge.net/DTD/sodipodi-0.dtd" xmlns:inkscape="http://www.inkscape.org/namespaces/inkscape" version="1.1" viewBox="0 0 45.2 45">
  <defs>
    <style>
      .cls-1 {
        fill: #0c0;
      }

      .cls-1, .cls-2, .cls-3 {
        stroke-width: 0px;
      }

      .cls-2 {
        fill: blue;
      }

      <!-- .cls-3 {
        fill: #000;
      } -->
    </style>
  </defs>
  <sodipodi:namedview id="namedview2" bordercolor="#000000" borderopacity="0.25" inkscape:current-layer="layer1" inkscape:cx="21.435469" inkscape:cy="27.310376" inkscape:deskcolor="#d1d1d1" inkscape:pagecheckerboard="0" inkscape:pageopacity="0.0" inkscape:showpageshadow="2" inkscape:window-height="955" inkscape:window-maximized="0" inkscape:window-width="1392" inkscape:window-x="0" inkscape:window-y="25" inkscape:zoom="12.595945" pagecolor="#ffffff"/>
  <rect id="rect1" class="cls-2" width="45" height="45" sodipodi:insensitive="true"/>
  <g id="use2">
    <g id="g3">
      <!-- <path id="path2" class="cls-3" d="M1.9,29.8c1.4-1.9,2.8-4.9,4-6.4,3.5,4.4,4.7,5.8,7.4,8.3,1.9-3,5.3-10,8.2-14.1,4.9-6.8,12.1-12.2,16.2-14.1,2.7,3.2,5.4,6.2,7.6,10.1-2.4,0-14.7,5.6-18.6,9.7-3.8,4-6.5,7.2-8.8,10.5-2.3,3.4-1.4,2.5-3.7,5.4-4.3-2.7-8.2-6.1-12.2-9.4h0Z"/> -->
      <path id="path3" class="cls-1" d="M1,27.1c1.4-1.9,2.8-4.9,4-6.4,3.5,4.4,4.7,5.8,7.4,8.3,1.9-3,5.3-10,8.2-14.1,4.9-6.8,12.1-12.2,16.2-14.1,2.7,3.2,5.4,6.2,7.6,10.1-2.4,0-14.7,5.6-18.6,9.7-3.8,4-6.5,7.2-8.8,10.5-2.3,3.4-1.4,2.5-3.7,5.4-4.3-2.7-8.2-6.1-12.2-9.4h0Z"/>
    </g>
  </g>
</svg>