<?xml version="1.0" encoding="UTF-8"?>
<svg id="Icons" xmlns="http://www.w3.org/2000/svg" viewBox="0 0 45 45">
<rect width="100%" height="100%" fill="blue"/>

  <symbol id="do_not" viewBox= "0 0 35 45">
    <path  transform="scale(3)" xmlns="http://www.w3.org/2000/svg"
      style="fill:none;stroke:red;stroke-width:.99975002;stroke-linecap:butt;stroke-linejoin:miter;stroke-miterlimit:4;stroke-dasharray:none;stroke-opacity:1"
      d="M11 6A5 5 0 1 0 1 6a5 5 0 0 0 10 0ZM2.464 2.464l7.072 7.072" />
  </symbol>

  <symbol id="cone" viewBox= "0 0 24.5 45">

    <g id="wholeCone" >

      <ellipse id="_x3C_ShadowPath_x3E_" cx="12.9" cy="42.7" rx="9.5" ry="1.5"
        style="fill: #45413c; isolation: isolate; opacity: .15;" />
      <g id="_x3C_IceCreamGroup_x3E_">
        <g id="_x3C_ConeGroup_x3E_">
          <g id="_x3C_ConeTopGroup_x3E_">
            <path id="_x3C_ConeTopFill_x3E_"
              d="M19.9,29.1H5.9c-.4,0-.8-.3-.9-.7l-.9-3.6c-.1-.6.3-1.1.9-1.1h15.8c.6,0,1,.6.9,1.1l-.9,3.6c-.1.4-.5.7-.9.7Z"
              style="fill: #f0d5a8;" />
            <path id="_x3C_ConeTopHighlightFill_x3E_"
              d="M4.4,25.9h17l.3-1.1c.1-.6-.3-1.1-.9-1.1H5c-.6,0-1,.6-.9,1.1l.3,1.1Z" style="fill: #f7e5c6;" />
            <path id="_x3C_ConeTopStroke_x3E_"
              d="M19.9,29.1H5.9c-.4,0-.8-.3-.9-.7l-.9-3.6c-.1-.6.3-1.1.9-1.1h15.8c.6,0,1,.6.9,1.1l-.9,3.6c-.1.4-.5.7-.9.7Z"
              style="fill: none; stroke: #45413c; stroke-linecap: round; stroke-linejoin: round;" />
          </g>
          <g id="_x3C_ConeBottomGroup_x3E_">
            <path id="_x3C_ConeBottomFill_x3E_"
              d="M15.1,42.7h-4.3c-1.4,0-2.5-1-2.7-2.4l-1.5-11.2h12.7l-1.5,11.2c-.2,1.4-1.4,2.4-2.7,2.4Z"
              style="fill: #f0d5a8;" />
            <polygon id="_x3C_ConeBottomShadowFill_x3E_" points="18.9 31.4 19.3 29.1 6.5 29.1 6.9 31.4 18.9 31.4"
              style="fill: #debb7e;" />
            <path id="_x3C_ConeBottomStroke_x3E_"
              d="M15.1,42.7h-4.3c-1.4,0-2.5-1-2.7-2.4l-1.5-11.2h12.7l-1.5,11.2c-.2,1.4-1.4,2.4-2.7,2.4Z"
              style="fill: none; stroke: #45413c; stroke-linecap: round; stroke-linejoin: round;" />
          </g>
        </g>
        <g id="_x3C_IceCreamGroup_x3E_-2" data-name="_x3C_IceCreamGroup_x3E_">
          <g id="_x3C_IceCreamBaseGroup_x3E_">
            <!-- right dark part st37 -->
            <path id="biggerTopPartOnTheRight"
              d="M21.9,14c.3-.5.5-1.1.5-1.7,0-1.8-1.4-3.2-3.2-3.2h-1.2c.4-.5.7-1.1.7-1.8,0-1.5-1.2-2.7-2.7-2.7h-1.4c-2,0-3.4-2.2-2.4-4.1-3,.3-5.4,2.8-5.4,5.9,0,.8.2,2.1.5,2.7h-.9c-1.8,0-3.2,1.4-3.2,3.2,0,.6.2,1.2.5,1.7-1.9.7-3.2,2.5-3.2,4.7,0,2.8,2.2,5,5,5h14.5c2.8,0,5-2.2,5-5,.1-2.2-1.2-4-3.1-4.7Z"
              style="fill: hsl(var(--hue), var(--saturation), var(--lightness_main));" />
            <!-- left light part st9 -->
            <path id="smallerTopPartOnTheLeft"
              d="M3.4,20.5c0-2.1,1.3-3.9,3.2-4.7-.3-.5-.5-1.1-.5-1.7,0-1.8,1.4-3.2,3.2-3.2h.9c-.3-.7-.5-1.9-.5-2.7,0-2.1,1.1-3.9,2.7-4.9-.5-.8-.6-1.8,0-2.8-3,.3-5.4,2.8-5.4,5.9,0,.8.2,2.1.5,2.7h-.9c-1.8,0-3.2,1.4-3.2,3.2,0,.6.2,1.2.5,1.7-1.9.7-3.2,2.5-3.2,4.7s1.6,4.3,3.7,4.8c-.6-.9-1-1.9-1-3Z"
              style="fill: hsl(var(--hue), var(--saturation), var(--lightness_highlight));" />
            <!-- the top left + right part of the icecream cone -->
            <path id="_x3C_IceCreamBaseStroke_x3E_"
              d="M21.9,14c.3-.5.5-1.1.5-1.7,0-1.8-1.4-3.2-3.2-3.2h-1.2c.4-.5.7-1.1.7-1.8,0-1.5-1.2-2.7-2.7-2.7h-1.4c-2,0-3.4-2.2-2.4-4.1-3,.3-5.4,2.8-5.4,5.9,0,.8.2,2.1.5,2.7h-.9c-1.8,0-3.2,1.4-3.2,3.2,0,.6.2,1.2.5,1.7-1.9.7-3.2,2.5-3.2,4.7,0,2.8,2.2,5,5,5h14.5c2.8,0,5-2.2,5-5,.1-2.2-1.2-4-3.1-4.7Z"
              style="fill: none; stroke: #45413c; stroke-linecap: round; stroke-linejoin: round;" />
          </g>
          <path id="_x3C_Drip3_x3E_" d="M20.6,17.3v1.4c0,.8-.6,1.4-1.4,1.4s-1.4-.6-1.4-1.4v-3.2"
            style="fill: none; stroke: #45413c; stroke-linecap: round; stroke-linejoin: round;" />
          <path id="_x3C_Drip2_x3E_" d="M12.4,11.8v2.3c0,.8-.6,1.4-1.4,1.4s-1.4-.6-1.4-1.4v-.9"
            style="fill: none; stroke: #45413c; stroke-linecap: round; stroke-linejoin: round;" />
          <g id="_x3C_Drip1Group_x3E_">
            <!-- the small part equal to right bigger part (dark) -->
            <path id="littleDripOnTheTop" d="M8.8,22.7v2.3c0,.8-.6,1.4-1.4,1.4s-1.4-.6-1.4-1.4v-2.3h2.8Z"
              style="fill: hsl(var(--hue) ,var(--saturation),var(--lightness_main));" />
            <path id="_x3C_Drip1Stroke_x3E_" d="M8.8,23.6v1.4c0,.8-.6,1.4-1.4,1.4s-1.4-.6-1.4-1.4v-2.3"
              style="fill: none; stroke: #45413c; stroke-linecap: round; stroke-linejoin: round;" />
          </g>
        </g>
      </g>
    </g>
  </symbol>
<use href="#cone"/>
<use href="#do_not"/>
</svg>