<?xml version="1.0" encoding="UTF-8"?>
<svg id="Icons" xmlns="http://www.w3.org/2000/svg" viewBox="0 0 45 45">
<rect width="100%" height="100%" fill="blue"/>

  <symbol id="do_not" viewBox= "0 0 35 45">
  <g
     transform="translate(-170,-245.41254)"
     id="layer1">
    <path
       d="M 178.40416,267.08166 C 179.07969,266.39642 179.7453,265.29292 180.29166,264.71796 C 181.98014,266.33728 182.55039,266.86534 183.82858,267.75605 C 184.73539,266.6668 186.33602,264.06911 187.71154,262.59077 C 190.02023,260.10951 193.47643,258.10636 195.39518,257.42269 C 196.68673,258.59836 197.96082,259.71036 198.98876,261.13231 C 197.8525,261.13231 191.97414,263.20034 190.14691,264.68695 C 188.31969,266.17356 187.0712,267.33128 185.97704,268.54113 C 184.86184,269.77425 185.31867,269.47646 184.22381,270.52477 C 182.18874,269.54267 180.31124,268.28604 178.40416,267.08166 z "
       style="fill:#000000;opacity: var(--show);"
       id="path2517" />
    <path
       d="M 177.96221,266.07151 C 178.63774,265.38627 179.30335,264.28277 179.84971,263.70781 C 181.53819,265.32713 182.10844,265.85519 183.38663,266.7459 C 184.29344,265.65665 185.89407,263.05896 187.26959,261.58062 C 189.57828,259.09936 193.03448,257.09621 194.95323,256.41254 C 196.24478,257.58821 197.51887,258.70021 198.54681,260.12216 C 197.41055,260.12216 191.53219,262.19019 189.70496,263.6768 C 187.87774,265.16341 186.62925,266.32113 185.53509,267.53098 C 184.41989,268.7641 184.87672,268.46631 183.78186,269.51462 C 181.74679,268.53252 179.86929,267.27589 177.96221,266.07151 z "
       style="fill:#00cc00;fill-opacity:1;opacity: var(--show);"
       id="path2515" />
  </g>
  </symbol>

  <symbol id="cone" viewBox= "0 0 24.5 45">

    <g id="wholeCone" >

      <ellipse id="_x3C_ShadowPath_x3E_" cx="12.9" cy="42.7" rx="9.5" ry="1.5"
        style="fill: #45413c; isolation: isolate; opacity: .15;" />
      <g id="_x3C_IceCreamGroup_x3E_">
        <g id="_x3C_ConeGroup_x3E_">
          <g id="_x3C_ConeTopGroup_x3E_">
            <path id="_x3C_ConeTopFill_x3E_"
              d="M19.9,29.1H5.9c-.4,0-.8-.3-.9-.7l-.9-3.6c-.1-.6.3-1.1.9-1.1h15.8c.6,0,1,.6.9,1.1l-.9,3.6c-.1.4-.5.7-.9.7Z"
              style="fill: #f0d5a8;" />
            <path id="_x3C_ConeTopHighlightFill_x3E_"
              d="M4.4,25.9h17l.3-1.1c.1-.6-.3-1.1-.9-1.1H5c-.6,0-1,.6-.9,1.1l.3,1.1Z" style="fill: #f7e5c6;" />
            <path id="_x3C_ConeTopStroke_x3E_"
              d="M19.9,29.1H5.9c-.4,0-.8-.3-.9-.7l-.9-3.6c-.1-.6.3-1.1.9-1.1h15.8c.6,0,1,.6.9,1.1l-.9,3.6c-.1.4-.5.7-.9.7Z"
              style="fill: none; stroke: #45413c; stroke-linecap: round; stroke-linejoin: round;" />
          </g>
          <g id="_x3C_ConeBottomGroup_x3E_">
            <path id="_x3C_ConeBottomFill_x3E_"
              d="M15.1,42.7h-4.3c-1.4,0-2.5-1-2.7-2.4l-1.5-11.2h12.7l-1.5,11.2c-.2,1.4-1.4,2.4-2.7,2.4Z"
              style="fill: #f0d5a8;" />
            <polygon id="_x3C_ConeBottomShadowFill_x3E_" points="18.9 31.4 19.3 29.1 6.5 29.1 6.9 31.4 18.9 31.4"
              style="fill: #debb7e;" />
            <path id="_x3C_ConeBottomStroke_x3E_"
              d="M15.1,42.7h-4.3c-1.4,0-2.5-1-2.7-2.4l-1.5-11.2h12.7l-1.5,11.2c-.2,1.4-1.4,2.4-2.7,2.4Z"
              style="fill: none; stroke: #45413c; stroke-linecap: round; stroke-linejoin: round;" />
          </g>
        </g>
        <g id="_x3C_IceCreamGroup_x3E_-2" data-name="_x3C_IceCreamGroup_x3E_">
          <g id="_x3C_IceCreamBaseGroup_x3E_">
            <!-- right dark part st37 -->
            <path id="biggerTopPartOnTheRight"
              d="M21.9,14c.3-.5.5-1.1.5-1.7,0-1.8-1.4-3.2-3.2-3.2h-1.2c.4-.5.7-1.1.7-1.8,0-1.5-1.2-2.7-2.7-2.7h-1.4c-2,0-3.4-2.2-2.4-4.1-3,.3-5.4,2.8-5.4,5.9,0,.8.2,2.1.5,2.7h-.9c-1.8,0-3.2,1.4-3.2,3.2,0,.6.2,1.2.5,1.7-1.9.7-3.2,2.5-3.2,4.7,0,2.8,2.2,5,5,5h14.5c2.8,0,5-2.2,5-5,.1-2.2-1.2-4-3.1-4.7Z"
              style="fill: hsl(var(--hue), var(--saturation), var(--lightness_main));" />
            <!-- left light part st9 -->
            <path id="smallerTopPartOnTheLeft"
              d="M3.4,20.5c0-2.1,1.3-3.9,3.2-4.7-.3-.5-.5-1.1-.5-1.7,0-1.8,1.4-3.2,3.2-3.2h.9c-.3-.7-.5-1.9-.5-2.7,0-2.1,1.1-3.9,2.7-4.9-.5-.8-.6-1.8,0-2.8-3,.3-5.4,2.8-5.4,5.9,0,.8.2,2.1.5,2.7h-.9c-1.8,0-3.2,1.4-3.2,3.2,0,.6.2,1.2.5,1.7-1.9.7-3.2,2.5-3.2,4.7s1.6,4.3,3.7,4.8c-.6-.9-1-1.9-1-3Z"
              style="fill: hsl(var(--hue), var(--saturation), var(--lightness_highlight));" />
            <!-- the top left + right part of the icecream cone -->
            <path id="_x3C_IceCreamBaseStroke_x3E_"
              d="M21.9,14c.3-.5.5-1.1.5-1.7,0-1.8-1.4-3.2-3.2-3.2h-1.2c.4-.5.7-1.1.7-1.8,0-1.5-1.2-2.7-2.7-2.7h-1.4c-2,0-3.4-2.2-2.4-4.1-3,.3-5.4,2.8-5.4,5.9,0,.8.2,2.1.5,2.7h-.9c-1.8,0-3.2,1.4-3.2,3.2,0,.6.2,1.2.5,1.7-1.9.7-3.2,2.5-3.2,4.7,0,2.8,2.2,5,5,5h14.5c2.8,0,5-2.2,5-5,.1-2.2-1.2-4-3.1-4.7Z"
              style="fill: none; stroke: #45413c; stroke-linecap: round; stroke-linejoin: round;" />
          </g>
          <path id="_x3C_Drip3_x3E_" d="M20.6,17.3v1.4c0,.8-.6,1.4-1.4,1.4s-1.4-.6-1.4-1.4v-3.2"
            style="fill: none; stroke: #45413c; stroke-linecap: round; stroke-linejoin: round;" />
          <path id="_x3C_Drip2_x3E_" d="M12.4,11.8v2.3c0,.8-.6,1.4-1.4,1.4s-1.4-.6-1.4-1.4v-.9"
            style="fill: none; stroke: #45413c; stroke-linecap: round; stroke-linejoin: round;" />
          <g id="_x3C_Drip1Group_x3E_">
            <!-- the small part equal to right bigger part (dark) -->
            <path id="littleDripOnTheTop" d="M8.8,22.7v2.3c0,.8-.6,1.4-1.4,1.4s-1.4-.6-1.4-1.4v-2.3h2.8Z"
              style="fill: hsl(var(--hue) ,var(--saturation),var(--lightness_main));" />
            <path id="_x3C_Drip1Stroke_x3E_" d="M8.8,23.6v1.4c0,.8-.6,1.4-1.4,1.4s-1.4-.6-1.4-1.4v-2.3"
              style="fill: none; stroke: #45413c; stroke-linecap: round; stroke-linejoin: round;" />
          </g>
        </g>
      </g>
    </g>
  </symbol>
<use href="#cone"/>
<use href="#do_not" />
</svg>