<?xml version="1.0" encoding="utf-8"?>
<!-- Generator: Adobe Illustrator 21.1.0, SVG Export Plug-In . SVG Version: 6.00 Build 0)  -->
<svg version="1.1" id="Icons" xmlns="http://www.w3.org/2000/svg" xmlns:xlink="http://www.w3.org/1999/xlink" x="0px" y="0px"
	 viewBox="0 0 48 48" style="enable-background:new 0 0 48 48;" xml:space="preserve">

<defs>
<style type="text/css">
	.ghosted{filter: saturate(0);}
	.st0{opacity:0.15;fill:#45413C;}
	.st1{fill:#FFE500;}
	.st2{fill:#EBCB00;}
	.st3{fill:none;stroke:#45413C;stroke-linecap:round;stroke-linejoin:round;stroke-miterlimit:10;}
	.st4{fill:#FFAA54;}
	.st5{fill:#FF8A14;}
	.st6{fill:#FFB0CA;stroke:#45413C;stroke-linecap:round;stroke-linejoin:round;stroke-miterlimit:10;}
	.st7{fill:#FF87AF;stroke:#45413C;stroke-linecap:round;stroke-linejoin:round;stroke-miterlimit:10;}
	.st8{fill:#FFCC99;}
	.st37{filter: brightness(0.75);}
	.st10{fill:#F0F0F0;}
	.st11{fill:#BF8256;}
	.st12{fill:#915E3A;}
	.st13{fill:#DEA47A;}
	.st14{fill:#F0D5A8;}
	.st15{fill:#DEBB7E;}
	.st16{fill:#F7E5C6;}
	.st17{fill:#FF8A14;stroke:#45413C;stroke-linecap:round;stroke-linejoin:round;stroke-miterlimit:10;}
	.st18{fill:#FFF5E3;}
	.st19{fill:#FFF48C;}
	.st20{fill:#FFFACF;}
	.st21{fill:#FFFCE5;}
	.st22{fill:#FF87AF;}
	.st23{fill:#FFB0CA;}
	.st24{fill:#FFE500;stroke:#45413C;stroke-linecap:round;stroke-linejoin:round;stroke-miterlimit:10;}
	.st25{fill:#9CEB60;stroke:#45413C;stroke-linecap:round;stroke-linejoin:round;stroke-miterlimit:10;}
	.st26{fill:#FFFACF;stroke:#45413C;stroke-linecap:round;stroke-linejoin:round;stroke-miterlimit:10;}
	.st27{fill:#00F5BC;stroke:#45413C;stroke-linecap:round;stroke-linejoin:round;stroke-miterlimit:10;}
	.st28{fill:#BF8256;stroke:#45413C;stroke-linecap:round;stroke-linejoin:round;stroke-miterlimit:10;}
	.st29{fill:#FFE3CF;stroke:#45413C;stroke-linecap:round;stroke-linejoin:round;stroke-miterlimit:10;}
	.st30{fill:#FF6242;}
	.st31{fill:#FF866E;}
	.st32{fill:none;stroke:#E04122;stroke-linecap:round;stroke-linejoin:round;stroke-miterlimit:10;}
	.st33{fill:#FFFEF2;stroke:#45413C;stroke-linecap:round;stroke-linejoin:round;stroke-miterlimit:10;}
	.st34{fill:#FF6242;stroke:#45413C;stroke-linecap:round;stroke-linejoin:round;stroke-miterlimit:10;}
	.st35{fill:#FFA694;}
	.st36{fill:#FFFFFF;stroke:#45413C;stroke-linecap:round;stroke-linejoin:round;stroke-miterlimit:10;}
	.st38{fill:#FF6196;}
	.st39{fill:#B89558;}
	.st40{fill:none;stroke:#915E3A;stroke-linecap:round;stroke-linejoin:round;stroke-miterlimit:10;}
	.st41{fill:#DEBB7E;stroke:#45413C;stroke-linecap:round;stroke-linejoin:round;stroke-miterlimit:10;}
	.st42{fill:#6DD627;stroke:#45413C;stroke-linecap:round;stroke-linejoin:round;stroke-miterlimit:10;}
	.st43{fill:#E5F8FF;}
	.st44{fill:#E8F4FA;}
	.st45{fill:#E8F4FA;stroke:#45413C;stroke-linecap:round;stroke-linejoin:round;stroke-miterlimit:10;}
	.st46{fill:#FFCCDD;}
	.st47{fill:#E5F8FF;stroke:#45413C;stroke-linecap:round;stroke-linejoin:round;stroke-miterlimit:10;}
	.st48{fill:#00B8F0;stroke:#45413C;stroke-linecap:round;stroke-linejoin:round;stroke-miterlimit:10;}
	.st49{fill:#00B8F0;}
	.st50{fill:#4ACFFF;}
	.st51{fill:#E04122;}
	.st52{fill:#E04122;stroke:#45413C;stroke-linecap:round;stroke-linejoin:round;stroke-miterlimit:10;}
	.st53{fill:#87898C;}
	.st54{fill:#BDBEC0;}
	.st55{fill:#656769;}
	.st56{fill:#525252;}
	.st57{fill:#FFF48C;stroke:#45413C;stroke-linecap:round;stroke-linejoin:round;stroke-miterlimit:10;}
	.st58{fill:#6DD627;}
	.st59{fill:#EB6D00;}
	.st60{fill:#46B000;}
	.st61{fill:#80DDFF;}
	.st62{fill:#DAEDF7;}
	.st63{fill:#BF8DF2;stroke:#45413C;stroke-linecap:round;stroke-linejoin:round;stroke-miterlimit:10;}
	.st64{fill:#9F5AE5;stroke:#45413C;stroke-linecap:round;stroke-linejoin:round;stroke-miterlimit:10;}
	.st65{fill:#C8FFA1;}
	.st66{fill:#E4FFD1;}
	.st67{fill:#9CEB60;}
	.st68{fill:#E5FEFF;}
	.st69{fill:#B8ECFF;}
	.st70{fill:#E0E0E0;stroke:#45413C;stroke-linecap:round;stroke-linejoin:round;stroke-miterlimit:10;}
	.st71{fill:#E0E0E0;}
	.st72{fill:none;stroke:#4F4B45;stroke-linejoin:round;stroke-miterlimit:10;}
	.st73{fill:none;stroke:#4F4B45;stroke-linecap:round;stroke-linejoin:round;stroke-miterlimit:10;}
	.st74{fill:#E0366F;stroke:#45413C;stroke-linecap:round;stroke-linejoin:round;stroke-miterlimit:10;}
	.st75{fill:none;stroke:#45413C;stroke-miterlimit:10;}
	.st76{fill:#FF866E;stroke:#45413C;stroke-linecap:round;stroke-linejoin:round;stroke-miterlimit:10;}
	.st77{fill:#45413C;stroke:#45413C;stroke-linecap:round;stroke-linejoin:round;stroke-miterlimit:10;}
	.st78{fill:#9F5AE5;}
	.st79{fill:#803EC2;}
	.st80{fill:#803EC2;stroke:#45413C;stroke-linecap:round;stroke-linejoin:round;stroke-miterlimit:10;}
	.st81{fill:#BF8DF2;}
	.st82{fill:#FFAA54;stroke:#45413C;stroke-linecap:round;stroke-linejoin:round;stroke-miterlimit:10;}
	.st83{fill:none;stroke:#45413C;stroke-linejoin:round;stroke-miterlimit:10;}
	.st84{fill:#FFCCDD;stroke:#45413C;stroke-linecap:round;stroke-linejoin:round;stroke-miterlimit:10;}
	.st85{fill:#FF6196;stroke:#45413C;stroke-linecap:round;stroke-linejoin:round;stroke-miterlimit:10;}
	.st86{fill:#FFE5EE;}
	.st87{fill:#F7E5C6;stroke:#45413C;stroke-linecap:round;stroke-linejoin:round;stroke-miterlimit:10;}
	.st88{fill:#E5FFF9;}
	.st89{fill:none;stroke:#45413C;stroke-width:1.0064;stroke-linecap:round;stroke-linejoin:round;stroke-miterlimit:10;}
	.st90{fill:#4AEFF7;}
	.st91{fill:#A6FBFF;}
	.st92{fill:#E5FEFF;stroke:#45413C;stroke-linecap:round;stroke-linejoin:round;stroke-miterlimit:10;}
	.st93{fill:#46B000;stroke:#45413C;stroke-linecap:round;stroke-linejoin:round;stroke-miterlimit:10;}
	.st94{fill:#FFFFFF;stroke:#45413C;stroke-linejoin:round;stroke-miterlimit:10;}
	.st95{fill:#FFFFFF;stroke:#45413C;stroke-miterlimit:10;}
	.st96{fill:#009FD9;}
	.st97{fill:#00DFEB;}
	.st98{fill:#C0DCEB;stroke:#45413C;stroke-linecap:round;stroke-linejoin:round;stroke-miterlimit:10;}
	.st99{fill:#00DFEB;stroke:#45413C;stroke-linecap:round;stroke-linejoin:round;stroke-miterlimit:10;}
	.st100{fill:#FFE5EE;stroke:#45413C;stroke-linecap:round;stroke-linejoin:round;stroke-miterlimit:10;}
	.st101{fill:#8CA4B8;}
	.st102{fill:#ADC4D9;}
	.st103{fill:#656769;stroke:#45413C;stroke-linecap:round;stroke-linejoin:round;stroke-miterlimit:10;}
	.st104{fill:#F0F0F0;stroke:#45413C;stroke-linecap:round;stroke-linejoin:round;stroke-miterlimit:10;}
	.st105{fill:#C0DCEB;}
	.st106{fill:#45413C;}
	.st107{fill:#FFCABF;}
	.st108{fill:#87898C;stroke:#45413C;stroke-linecap:round;stroke-linejoin:round;stroke-miterlimit:10;}
	.st109{fill:#EBCB00;stroke:#45413C;stroke-linecap:round;stroke-linejoin:round;stroke-miterlimit:10;}
</style>

<symbol id ="cone">
<g id="XMLID_13692_">
	<ellipse id="XMLID_13713_" class="st0" cx="24" cy="45.5" rx="9.5" ry="1.5"/>
	<g id="XMLID_13693_">
		<g id="XMLID_13704_">
			<g id="XMLID_13709_">
				<path id="XMLID_13712_" class="st14" d="M31,31.9H17c-0.4,0-0.8-0.3-0.9-0.7l-0.9-3.6c-0.1-0.6,0.3-1.1,0.9-1.1h15.8
					c0.6,0,1,0.6,0.9,1.1l-0.9,3.6C31.8,31.6,31.4,31.9,31,31.9z"/>
				<path id="XMLID_13711_" class="st16" d="M15.5,28.7h17l0.3-1.1c0.1-0.6-0.3-1.1-0.9-1.1H16.1c-0.6,0-1,0.6-0.9,1.1L15.5,28.7z"
					/>
				<path id="XMLID_13710_" class="st3" d="M31,31.9H17c-0.4,0-0.8-0.3-0.9-0.7l-0.9-3.6c-0.1-0.6,0.3-1.1,0.9-1.1h15.8
					c0.6,0,1,0.6,0.9,1.1l-0.9,3.6C31.8,31.6,31.4,31.9,31,31.9z"/>
			</g>
			<g id="XMLID_13705_">
				<path id="XMLID_13708_" class="st14" d="M26.2,45.5h-4.3c-1.4,0-2.5-1-2.7-2.4l-1.5-11.2h12.7l-1.5,11.2
					C28.7,44.5,27.5,45.5,26.2,45.5z"/>
				<polygon id="XMLID_13707_" class="st15" points="30,34.2 30.4,31.9 17.6,31.9 18,34.2 				"/>
				<path id="XMLID_13706_" class="st3" d="M26.2,45.5h-4.3c-1.4,0-2.5-1-2.7-2.4l-1.5-11.2h12.7l-1.5,11.2
					C28.7,44.5,27.5,45.5,26.2,45.5z"/>
			</g>
		</g>
		<g id="XMLID_13694_">
			<g id="XMLID_13700_">
				<path id="XMLID_13703_" style="fill:var(--color_fill);;" class="st9 st37" d="M33,16.8c0.3-0.5,0.5-1.1,0.5-1.7c0-1.8-1.4-3.2-3.2-3.2h-1.2c0.4-0.5,0.7-1.1,0.7-1.8
					c0-1.5-1.2-2.7-2.7-2.7l-1.4,0c-2,0-3.4-2.2-2.4-4.1c-3,0.3-5.4,2.8-5.4,5.9c0,0.8,0.2,2.1,0.5,2.7h-0.9c-1.8,0-3.2,1.4-3.2,3.2
					c0,0.6,0.2,1.2,0.5,1.7c-1.9,0.7-3.2,2.5-3.2,4.7c0,2.8,2.2,5,5,5h14.5c2.8,0,5-2.2,5-5C36.2,19.3,34.9,17.5,33,16.8z"/>
				<path id="XMLID_13702_" style="fill:var(--color_fill);" class="st9" d="M14.5,23.3c0-2.1,1.3-3.9,3.2-4.7c-0.3-0.5-0.5-1.1-0.5-1.7c0-1.8,1.4-3.2,3.2-3.2h0.9
					C21,13,20.8,11.8,20.8,11c0-2.1,1.1-3.9,2.7-4.9c-0.5-0.8-0.6-1.8,0-2.8c-3,0.3-5.4,2.8-5.4,5.9c0,0.8,0.2,2.1,0.5,2.7h-0.9
					c-1.8,0-3.2,1.4-3.2,3.2c0,0.6,0.2,1.2,0.5,1.7c-1.9,0.7-3.2,2.5-3.2,4.7c0,2.3,1.6,4.3,3.7,4.8C14.9,25.4,14.5,24.4,14.5,23.3z
					"/>
				<path id="XMLID_13701_" class="st3" d="M33,16.8c0.3-0.5,0.5-1.1,0.5-1.7c0-1.8-1.4-3.2-3.2-3.2h-1.2c0.4-0.5,0.7-1.1,0.7-1.8
					c0-1.5-1.2-2.7-2.7-2.7l-1.4,0c-2,0-3.4-2.2-2.4-4.1c-3,0.3-5.4,2.8-5.4,5.9c0,0.8,0.2,2.1,0.5,2.7h-0.9c-1.8,0-3.2,1.4-3.2,3.2
					c0,0.6,0.2,1.2,0.5,1.7c-1.9,0.7-3.2,2.5-3.2,4.7c0,2.8,2.2,5,5,5h14.5c2.8,0,5-2.2,5-5C36.2,19.3,34.9,17.5,33,16.8z"/>
			</g>
			<path id="XMLID_13699_" class="st3" d="M31.7,20.1v1.4c0,0.8-0.6,1.4-1.4,1.4c-0.8,0-1.4-0.6-1.4-1.4v-3.2"/>
			<path id="XMLID_13698_" class="st3" d="M23.5,14.6v2.3c0,0.8-0.6,1.4-1.4,1.4s-1.4-0.6-1.4-1.4V16"/>
			<g id="XMLID_13695_">
				<path id="XMLID_13697_" class="st9 st37" d="M19.9,25.5v2.3c0,0.8-0.6,1.4-1.4,1.4s-1.4-0.6-1.4-1.4v-2.3H19.9z"/>
				<path id="XMLID_13696_" class="st3" d="M19.9,26.4v1.4c0,0.8-0.6,1.4-1.4,1.4s-1.4-0.6-1.4-1.4v-2.3"/>
			</g>
		</g>
	</g>
</g>
</symbol>
</defs>
 <use xlink:href="icecream.svg#cone"  />
</svg>
