<?xml version="1.0" encoding="UTF-8"?>
<svg id="Icons" xmlns="http://www.w3.org/2000/svg" viewBox="0 0 45.17 45">
  <defs>
    <style>
      .cls-1 {
        fill: #0c0;
      }

      .cls-1, .cls-2, .cls-3 {
        stroke-width: 0px;
      }

      .cls-2 {
        fill: blue;
      }

      .cls-3 {
        fill: #000;
      }
    </style>
  </defs>
  <rect id="rect1" class="cls-2" width="45" height="45"/>
  <g id="use2">
    <g id="g3">
      <path id="path2" class="cls-3" d="M1.9,29.83c1.42-1.86,2.82-4.87,3.97-6.43,3.55,4.41,4.75,5.84,7.43,8.27,1.91-2.96,5.27-10.03,8.16-14.05,4.85-6.75,12.12-12.2,16.15-14.06,2.71,3.2,5.39,6.22,7.55,10.09-2.39,0-14.74,5.63-18.59,9.67-3.84,4.04-6.47,7.19-8.77,10.49-2.34,3.35-1.38,2.54-3.69,5.4-4.28-2.67-8.22-6.09-12.23-9.37h0Z"/>
      <path id="path3" class="cls-1" d="M.97,27.08c1.42-1.86,2.82-4.87,3.97-6.43,3.55,4.41,4.75,5.84,7.43,8.27,1.91-2.96,5.27-10.03,8.16-14.05,4.85-6.75,12.12-12.2,16.15-14.06,2.71,3.2,5.39,6.22,7.55,10.09-2.39,0-14.74,5.63-18.59,9.67-3.84,4.04-6.47,7.19-8.77,10.49-2.34,3.35-1.38,2.54-3.69,5.4-4.28-2.67-8.22-6.09-12.23-9.37h0Z"/>
    </g>
  </g>
</svg>