<?xml version="1.0" encoding="UTF-8" standalone="no"?>
<svg
   id="Icons"
   viewBox="0 0 45 45"
   version="1.1"
   sodipodi:docname="temp.svg"
   inkscape:version="1.3.2 (091e20e, 2023-11-25)"
   inkscape:export-filename="../../checkmark.svg"
   inkscape:export-xdpi="96"
   inkscape:export-ydpi="96"
   xmlns:inkscape="http://www.inkscape.org/namespaces/inkscape"
   xmlns:sodipodi="http://sodipodi.sourceforge.net/DTD/sodipodi-0.dtd"
   xmlns="http://www.w3.org/2000/svg"
   xmlns:svg="http://www.w3.org/2000/svg">
  <defs
     id="defs2" />
  <sodipodi:namedview
     id="namedview2"
     pagecolor="#ffffff"
     bordercolor="#000000"
     borderopacity="0.25"
     inkscape:showpageshadow="2"
     inkscape:pageopacity="0.0"
     inkscape:pagecheckerboard="0"
     inkscape:deskcolor="#d1d1d1"
     inkscape:zoom="12.595945"
     inkscape:cx="21.435469"
     inkscape:cy="27.310376"
     inkscape:window-width="1392"
     inkscape:window-height="955"
     inkscape:window-x="0"
     inkscape:window-y="25"
     inkscape:window-maximized="0"
     inkscape:current-layer="Icons" />
  <rect
     width="100%"
     height="100%"
     fill="#0000ff"
     id="rect1"
     sodipodi:insensitive="true"
     x="0"
     y="0" />
  <symbol
     id="do_not"
     viewBox="0 0 35 45">
    <g
       id="layer1">
     <path id="path2" class="cls-3" d="M1.9,29.83c1.42-1.86,2.82-4.87,3.97-6.43,3.55,4.41,4.75,5.84,7.43,8.27,1.91-2.96,5.27-10.03,8.16-14.05,4.85-6.75,12.12-12.2,16.15-14.06,2.71,3.2,5.39,6.22,7.55,10.09-2.39,0-14.74,5.63-18.59,9.67-3.84,4.04-6.47,7.19-8.77,10.49-2.34,3.35-1.38,2.54-3.69,5.4-4.28-2.67-8.22-6.09-12.23-9.37h0Z"/>
      <path id="path3" class="cls-1" d="M.97,27.08c1.42-1.86,2.82-4.87,3.97-6.43,3.55,4.41,4.75,5.84,7.43,8.27,1.91-2.96,5.27-10.03,8.16-14.05,4.85-6.75,12.12-12.2,16.15-14.06,2.71,3.2,5.39,6.22,7.55,10.09-2.39,0-14.74,5.63-18.59,9.67-3.84,4.04-6.47,7.19-8.77,10.49-2.34,3.35-1.38,2.54-3.69,5.4-4.28-2.67-8.22-6.09-12.23-9.37h0Z"/>
    </g>
  </symbol>
  <symbol
     id="cone"
     viewBox="0 0 24.5 45">
    <g
       id="wholeCone">
      <ellipse
         id="_x3C_ShadowPath_x3E_"
         cx="12.9"
         cy="42.7"
         rx="9.5"
         ry="1.5"
         style="fill: #45413c; isolation: isolate; opacity: .15;" />
      <g
         id="_x3C_IceCreamGroup_x3E_">
        <g
           id="_x3C_ConeGroup_x3E_">
          <g
             id="_x3C_ConeTopGroup_x3E_">
            <path
               id="_x3C_ConeTopFill_x3E_"
               d="M19.9,29.1H5.9c-.4,0-.8-.3-.9-.7l-.9-3.6c-.1-.6.3-1.1.9-1.1h15.8c.6,0,1,.6.9,1.1l-.9,3.6c-.1.4-.5.7-.9.7Z"
               style="fill: #f0d5a8;" />
            <path
               id="_x3C_ConeTopHighlightFill_x3E_"
               d="M4.4,25.9h17l.3-1.1c.1-.6-.3-1.1-.9-1.1H5c-.6,0-1,.6-.9,1.1l.3,1.1Z"
               style="fill: #f7e5c6;" />
            <path
               id="_x3C_ConeTopStroke_x3E_"
               d="M19.9,29.1H5.9c-.4,0-.8-.3-.9-.7l-.9-3.6c-.1-.6.3-1.1.9-1.1h15.8c.6,0,1,.6.9,1.1l-.9,3.6c-.1.4-.5.7-.9.7Z"
               style="fill: none; stroke: #45413c; stroke-linecap: round; stroke-linejoin: round;" />
          </g>
          <g
             id="_x3C_ConeBottomGroup_x3E_">
            <path
               id="_x3C_ConeBottomFill_x3E_"
               d="M15.1,42.7h-4.3c-1.4,0-2.5-1-2.7-2.4l-1.5-11.2h12.7l-1.5,11.2c-.2,1.4-1.4,2.4-2.7,2.4Z"
               style="fill: #f0d5a8;" />
            <polygon
               id="_x3C_ConeBottomShadowFill_x3E_"
               points="18.9 31.4 19.3 29.1 6.5 29.1 6.9 31.4 18.9 31.4"
               style="fill: #debb7e;" />
            <path
               id="_x3C_ConeBottomStroke_x3E_"
               d="M15.1,42.7h-4.3c-1.4,0-2.5-1-2.7-2.4l-1.5-11.2h12.7l-1.5,11.2c-.2,1.4-1.4,2.4-2.7,2.4Z"
               style="fill: none; stroke: #45413c; stroke-linecap: round; stroke-linejoin: round;" />
          </g>
        </g>
        <g
           id="_x3C_IceCreamGroup_x3E_-2"
           data-name="_x3C_IceCreamGroup_x3E_">
          <g
             id="_x3C_IceCreamBaseGroup_x3E_">
            <!-- right dark part st37 -->
            <path
               id="biggerTopPartOnTheRight"
               d="M21.9,14c.3-.5.5-1.1.5-1.7,0-1.8-1.4-3.2-3.2-3.2h-1.2c.4-.5.7-1.1.7-1.8,0-1.5-1.2-2.7-2.7-2.7h-1.4c-2,0-3.4-2.2-2.4-4.1-3,.3-5.4,2.8-5.4,5.9,0,.8.2,2.1.5,2.7h-.9c-1.8,0-3.2,1.4-3.2,3.2,0,.6.2,1.2.5,1.7-1.9.7-3.2,2.5-3.2,4.7,0,2.8,2.2,5,5,5h14.5c2.8,0,5-2.2,5-5,.1-2.2-1.2-4-3.1-4.7Z"
               style="fill: hsl(var(--hue), var(--saturation), var(--lightness_main));" />
            <!-- left light part st9 -->
            <path
               id="smallerTopPartOnTheLeft"
               d="M3.4,20.5c0-2.1,1.3-3.9,3.2-4.7-.3-.5-.5-1.1-.5-1.7,0-1.8,1.4-3.2,3.2-3.2h.9c-.3-.7-.5-1.9-.5-2.7,0-2.1,1.1-3.9,2.7-4.9-.5-.8-.6-1.8,0-2.8-3,.3-5.4,2.8-5.4,5.9,0,.8.2,2.1.5,2.7h-.9c-1.8,0-3.2,1.4-3.2,3.2,0,.6.2,1.2.5,1.7-1.9.7-3.2,2.5-3.2,4.7s1.6,4.3,3.7,4.8c-.6-.9-1-1.9-1-3Z"
               style="fill: hsl(var(--hue), var(--saturation), var(--lightness_highlight));" />
            <!-- the top left + right part of the icecream cone -->
            <path
               id="_x3C_IceCreamBaseStroke_x3E_"
               d="M21.9,14c.3-.5.5-1.1.5-1.7,0-1.8-1.4-3.2-3.2-3.2h-1.2c.4-.5.7-1.1.7-1.8,0-1.5-1.2-2.7-2.7-2.7h-1.4c-2,0-3.4-2.2-2.4-4.1-3,.3-5.4,2.8-5.4,5.9,0,.8.2,2.1.5,2.7h-.9c-1.8,0-3.2,1.4-3.2,3.2,0,.6.2,1.2.5,1.7-1.9.7-3.2,2.5-3.2,4.7,0,2.8,2.2,5,5,5h14.5c2.8,0,5-2.2,5-5,.1-2.2-1.2-4-3.1-4.7Z"
               style="fill: none; stroke: #45413c; stroke-linecap: round; stroke-linejoin: round;" />
          </g>
          <path
             id="_x3C_Drip3_x3E_"
             d="M20.6,17.3v1.4c0,.8-.6,1.4-1.4,1.4s-1.4-.6-1.4-1.4v-3.2"
             style="fill: none; stroke: #45413c; stroke-linecap: round; stroke-linejoin: round;" />
          <path
             id="_x3C_Drip2_x3E_"
             d="M12.4,11.8v2.3c0,.8-.6,1.4-1.4,1.4s-1.4-.6-1.4-1.4v-.9"
             style="fill: none; stroke: #45413c; stroke-linecap: round; stroke-linejoin: round;" />
          <g
             id="_x3C_Drip1Group_x3E_">
            <!-- the small part equal to right bigger part (dark) -->
            <path
               id="littleDripOnTheTop"
               d="M8.8,22.7v2.3c0,.8-.6,1.4-1.4,1.4s-1.4-.6-1.4-1.4v-2.3h2.8Z"
               style="fill: hsl(var(--hue) ,var(--saturation),var(--lightness_main));" />
            <path
               id="_x3C_Drip1Stroke_x3E_"
               d="M8.8,23.6v1.4c0,.8-.6,1.4-1.4,1.4s-1.4-.6-1.4-1.4v-2.3"
               style="fill: none; stroke: #45413c; stroke-linecap: round; stroke-linejoin: round;" />
          </g>
        </g>
      </g>
    </g>
  </symbol>
  <use
     href="#cone"
     id="use1" />
  <g
     id="use2"
     transform="matrix(1.0510101,0,0,1.3603338,5.2571202,24.51932)">
    <g
       transform="matrix(2,0,0,2,-360,-530.82508)"
       id="g3">
      <path
         d="m 178.40416,267.08166 c 0.67553,-0.68524 1.34114,-1.78874 1.8875,-2.3637 1.68848,1.61932 2.25873,2.14738 3.53692,3.03809 0.90681,-1.08925 2.50744,-3.68694 3.88296,-5.16528 2.30869,-2.48126 5.76489,-4.48441 7.68364,-5.16808 1.29155,1.17567 2.56564,2.28767 3.59358,3.70962 -1.13626,0 -7.01462,2.06803 -8.84185,3.55464 -1.82722,1.48661 -3.07571,2.64433 -4.16987,3.85418 -1.1152,1.23312 -0.65837,0.93533 -1.75323,1.98364 -2.03507,-0.9821 -3.91257,-2.23873 -5.81965,-3.44311 z"
         style="fill:#000000"
         id="path2" />
      <path
         d="m 177.96221,266.07151 c 0.67553,-0.68524 1.34114,-1.78874 1.8875,-2.3637 1.68848,1.61932 2.25873,2.14738 3.53692,3.03809 0.90681,-1.08925 2.50744,-3.68694 3.88296,-5.16528 2.30869,-2.48126 5.76489,-4.48441 7.68364,-5.16808 1.29155,1.17567 2.56564,2.28767 3.59358,3.70962 -1.13626,0 -7.01462,2.06803 -8.84185,3.55464 -1.82722,1.48661 -3.07571,2.64433 -4.16987,3.85418 -1.1152,1.23312 -0.65837,0.93533 -1.75323,1.98364 -2.03507,-0.9821 -3.91257,-2.23873 -5.81965,-3.44311 z"
         style="fill:#00cc00;fill-opacity:1"
         id="path3" />
    </g>
  </g>
</svg>
