<?xml version="1.0" encoding="UTF-8" standalone="no"?>
<svg
   viewBox="0 0 100 100"
   version="1.1"
   id="svg8"
   sodipodi:docname="icons.svg"
   inkscape:version="1.3.2 (091e20e, 2023-11-25)"
   xmlns:inkscape="http://www.inkscape.org/namespaces/inkscape"
   xmlns:sodipodi="http://sodipodi.sourceforge.net/DTD/sodipodi-0.dtd"
   xmlns="http://www.w3.org/2000/svg"
   xmlns:svg="http://www.w3.org/2000/svg">
  <sodipodi:namedview
     id="namedview8"
     pagecolor="#ffffff"
     bordercolor="#000000"
     borderopacity="0.25"
     inkscape:showpageshadow="2"
     inkscape:pageopacity="0.0"
     inkscape:pagecheckerboard="0"
     inkscape:deskcolor="#d1d1d1"
     inkscape:zoom="2.8849957"
     inkscape:cx="2.5996573"
     inkscape:cy="38.474928"
     inkscape:window-width="1392"
     inkscape:window-height="959"
     inkscape:window-x="2037"
     inkscape:window-y="125"
     inkscape:window-maximized="0"
     inkscape:current-layer="svg8" />
  <defs
     id="defs8">
    <symbol
       viewBox="0 0 110 100"
       id="triangle">
      <polygon
         points="0 50 100 0 100 100"
         id="polygon1" 
         />
    </symbol>
    <symbol
       viewBox="-10 0 110 110"
       id="diamond">
         <polygon points="50,0 100,50 50,100 0,50" transform="translate(0,10)"/>
    </symbol>
    <symbol
       viewBox="0 0 110 100"
       id="square">
      <rect
         width="100"
         height="100"
         id="rect2" />
    </symbol>
    <symbol
       viewBox="0 0 100 100"
       id="arrow">
      <path
         d="m 207.92142,36.865023 q 10.56389,11.517021 18.26838,17.553529 7.70449,5.95708 14.53528,8.895906 v 3.574248 q -7.86335,3.812532 -15.25013,9.769612 -7.38678,5.877652 -17.63296,17.315246 h -6.11593 q 7.46621,-15.964975 15.64726,-24.54317 H 90.686087 V 61.408193 H 217.37332 q -6.03651,-7.70449 -8.41934,-11.437594 -2.38283,-3.733103 -7.06907,-13.105576 z"
         id="text9"
         style="font-size:162.668px;stroke-width:13.5556"
         transform="scale(0.82270879,1.2154969) translate(-120,-20)"
         aria-label="→" />
    </symbol>
    <symbol
       viewBox="0 0 100 100"
       id="and">
      <g
         id="g2">
        <!-- <path
           d="M65.1,78.6h-9.6L36.3,25L17.1,78.6H7.5l24.3-64.6h9L65.1,78.6z"
           id="path2"
           transform="scale(1.2) translate(0,5)" /> -->
            <path d="M30,30 L50,80 L70,30" stroke="black" stroke-width="10" fill="transparent"/>
      </g>
    </symbol>
    <symbol
       viewBox="0 0 100 100"
       id="or">
      <g
         id="g3">
        <!-- <path
           d="M62.9,18.2L38.3,63.3h-9.1L4.6,18.2h9.7l19.4,37.3l19.5-37.3H62.9z"
           id="path3" 
           transform="translate(4, 10) scale(1.3)"/> -->
         <path d="M30,30 L50,80 L70,30" stroke="black" stroke-width="10" fill="transparent"/>
      </g>
    </symbol>
    <symbol
       viewBox="0 0 100 100"
       id="not">
      <g
         id="g4">
        <!-- <path d="M72.7,35.7c-5.6,9.3-12.2,14-19.6,14c-5,0-10.8-2.5-17.4-7.6c-6.8-5.8-12.6-8.7-17.2-8.7C12.5,33.5,6.3,39,0,50V25
        c5-9.8,11.6-14.8,19.7-14.8c5.1,0,11.6,2.8,19.5,8.5c6.2,5.3,11.3,7.9,15.1,7.9c6.1,0,12.2-5.6,18.3-16.7V35.7z"/> -->
        <!-- <path
           d="m 199.7002,37.577324 q -0.14319,7.08783 -1.64667,13.960876 -1.43189,6.873047 -4.65363,12.242615 -3.29333,5.512756 -7.94696,8.662903 -4.65362,3.150146 -11.81305,3.150146 -6.72986,0 -11.95624,-2.792175 -5.22637,-2.863769 -11.24029,-10.166382 -7.30261,-8.949279 -10.59595,-11.240295 -3.29333,-2.291016 -6.87304,-2.291016 -6.72986,0 -10.30958,6.300293 -3.57971,6.228699 -4.22406,20.26117 H 106.4845 q 0.14319,-7.159424 1.57507,-13.889283 1.50348,-6.801452 4.65363,-12.314209 3.07855,-5.297973 8.01855,-8.519714 4.94,-3.293335 11.81305,-3.293335 6.65826,0 11.88464,2.792175 5.29798,2.720581 11.38349,10.166382 5.72754,7.016236 9.37884,10.309571 3.65131,3.22174 8.01856,3.22174 7.3742,0 10.81073,-7.231018 3.50811,-7.231018 3.7229,-19.330444 z"
           style="font-size:146.625px;stroke-width:12.2187"
           transform="scale(0.89293893,1.1198974)"
           aria-label="~"
           id="path4" /> -->
           	<path d="M16.6,59.4c-0.5-11.2,6.7-17,16-17c5.6,0,9.9,1.5,18.9,5.1c6.8,2.7,11.8,4.7,16.8,4.7c4.8,0,7.1-3.3,7.3-9.4h8.1
		c0.7,12.6-7.1,17-15.4,17c-5.4,0-10.2-1.3-19.5-4.9c-6.3-2.6-11.3-4.9-16.1-4.9s-7.8,2.8-8.1,9.5H16.6z"/>
      </g>
    </symbol>
    <symbol
       viewBox="0 0 40 100"
       id="left-paren">
      <g
         id="g5">
        <!-- <path
           d="M21.4,78.9h-4.5c-3.9-5-6.9-10.4-9.2-16.3C5.4,56.8,4.3,51,4.3,45.2c0-6.5,1.2-12.6,3.6-18.2c2.4-5.6,5.4-10.8,9-15.6h4.5       c-4.2,6.8-7,12.8-8.4,18c-1.4,5.2-2.1,10.4-2.1,15.7C10.9,56.4,14.4,67.7,21.4,78.9z"
           id="path5"
           transform="translate(50,0) scale(1.3)" /> -->
         <path d="M40,10 C25,10 25,90 40,90" stroke="black" stroke-width="10" fill="transparent" />
      </g>
    </symbol>
    <symbol
       viewBox="0 0 40 100"
       id="right-paren">
       <g
         id="g5">
        <!-- <path
           d="M21.4,78.9h-4.5c-3.9-5-6.9-10.4-9.2-16.3C5.4,56.8,4.3,51,4.3,45.2c0-6.5,1.2-12.6,3.6-18.2c2.4-5.6,5.4-10.8,9-15.6h4.5       c-4.2,6.8-7,12.8-8.4,18c-1.4,5.2-2.1,10.4-2.1,15.7C10.9,56.4,14.4,67.7,21.4,78.9z"
           id="path5"
           transform="translate(50,0) scale(1.3)" /> -->
            <path d="M40,10 C25,10 25,90 40,90" stroke="black" stroke-width="10" fill="transparent"/>
      </g>
    </symbol>
    <symbol
       viewBox="0 0 24 24"
       id="close">
      <g
         id="g8">
        <path
           opacity="0.5"
           d="M12 22C7.28595 22 4.92893 22 3.46447 20.5355C2 19.0711 2 16.714 2 12C2 7.28595 2 4.92893 3.46447 3.46447C4.92893 2 7.28595 2 12 2C16.714 2 19.0711 2 20.5355 3.46447C22 4.92893 22 7.28595 22 12C22 16.714 22 19.0711 20.5355 20.5355C19.0711 22 16.714 22 12 22Z"
           fill="#1C274C"
           id="path7" />
        <path
           d="M8.96967 8.96967C9.26256 8.67678 9.73744 8.67678 10.0303 8.96967L12 10.9394L13.9697 8.96969C14.2626 8.6768 14.7374 8.6768 15.0303 8.96969C15.3232 9.26258 15.3232 9.73746 15.0303 10.0303L13.0607 12L15.0303 13.9697C15.3232 14.2625 15.3232 14.7374 15.0303 15.0303C14.7374 15.3232 14.2625 15.3232 13.9696 15.0303L12 13.0607L10.0304 15.0303C9.73746 15.3232 9.26258 15.3232 8.96969 15.0303C8.6768 14.7374 8.6768 14.2626 8.96969 13.9697L10.9394 12L8.96967 10.0303C8.67678 9.73744 8.67678 9.26256 8.96967 8.96967Z"
           fill="#1C274C"
           id="path8" />
      </g>
    </symbol>
  </defs>
  <use
     href="#or"
  >
</svg>
