<?xml version="1.0" encoding="utf-8"?>
<svg xmlns="http://www.w3.org/2000/svg"> 
  <defs> 
    <symbol viewBox="0 0 102 102" id="triangle"> 
      <polygon points="0 50 100 0 100 100"/>
    </symbol>
    <symbol viewBox="-10 0 110 110" id="diamond"> 
       <rect width="90" height="90" transform="translate(-5,51) rotate(-45) scale(0.8)"/>

    </symbol>
     <symbol viewBox="0 0 102 102" id="square"> 
       <rect width="100" height="100"/>
    </symbol>

    <symbol viewBox="0 -30 100 100" id="arrow">
      <g transform="translate(1.4065934065934016 1.4065934065934016) scale(2.81 2.81)">
        <path d="M34.5,8.1l-13.1,8.6v-5.8H-0.4c0,0-0.1,0-0.1-0.1V5.4c0,0,0-0.1,0.1-0.1h21.8v-5.8L34.5,8.1C34.5,8.1,34.5,8.1,34.5,8.1z"
          />
      </g>
    </symbol>
    
    <symbol viewBox="-20 -10 100 100" id="and">
    <g>
	    <path d="M65.1,78.6h-9.6L36.3,25L17.1,78.6H7.5l24.3-64.6h9L65.1,78.6z"/>
    </g>
    </symbol>

    <symbol viewBox="-30 -20 100 100" id="or">
      <g>
        <path d="M62.9,18.2L38.3,63.3h-9.1L4.6,18.2h9.7l19.4,37.3l19.5-37.3H62.9z"/>
      </g>
    <symbol viewBox="0 -15 100 100" id='not'>
      <g>
        <path d="M72.7,35.7c-5.6,9.3-12.2,14-19.6,14c-5,0-10.8-2.5-17.4-7.6c-6.8-5.8-12.6-8.7-17.2-8.7C12.5,33.5,6.3,39,0,50V25
        c5-9.8,11.6-14.8,19.7-14.8c5.1,0,11.6,2.8,19.5,8.5c6.2,5.3,11.3,7.9,15.1,7.9c6.1,0,12.2-5.6,18.3-16.7V35.7z"/>
      </g>
    </symbol>

    <symbol viewBox="0 0 24 80" id='left-paren'> 
      <g>
        <path d="M21.4,78.9h-4.5c-3.9-5-6.9-10.4-9.2-16.3C5.4,56.8,4.3,51,4.3,45.2c0-6.5,1.2-12.6,3.6-18.2c2.4-5.6,5.4-10.8,9-15.6h4.5
      c-4.2,6.8-7,12.8-8.4,18c-1.4,5.2-2.1,10.4-2.1,15.7C10.9,56.4,14.4,67.7,21.4,78.9z"/>
      </g>
    </symbol>

     <symbol viewBox="0 0 24 80" id='right-paren'> 
      <g>
        <path d="M7.1,11.4c3.9,5,6.9,10.4,9.2,16.3c2.2,5.9,3.3,11.7,3.3,17.5c0,6.5-1.2,12.6-3.6,18.2c-2.4,5.6-5.4,10.8-9,15.6H2.6
      c4.2-6.8,7-12.8,8.4-18c1.4-5.1,2.1-10.4,2.1-15.7c0-11.3-3.5-22.6-10.5-33.9H7.1z"/>
      </g>
    </symbol>
  </defs>   
</svg>
